# xmcd CD database file
#
# Track frame offsets:
#	150
#	22377
#	39246
#	59606
#	85571
#	114951
#	133363
#	158592
#	180573
#	204715
#	228087
#	256455
#	285295
#	305714
#	330140
#
# Disc length: 4680 seconds
#
# Revision: 0
# Processed by: cddbd v1.5.2PL0 Copyright (c) Steve Scherf et al.
# Submitted via: CDex 1.51
#
DISCID=c512460f
DTITLE=Various Artist - Kulturkantine Exotic Lounge Session [CD1)
DYEAR=2009
DGENRE=Jazz
TTITLE0=Los Impagaos Vs Romanowski feat. Adam Theis - El Ascensor (Romanowski Trouser Trombone Mix)
TTITLE1=Quantic and Nickodemus - Mi Swing Es Tropical
TTITLE2=Una Mas Trio feat. Eduardo Flores - Que Pasara
TTITLE3=Dunkelbunt feat. Amsterdam Klezmer Band - Black Eyed Sea
TTITLE4=Deladap - Lisa Lisa
TTITLE5=Eastenders - On The Ride (Vono Box Remix)
TTITLE6=Smokey Bandits - The Return Of The Gypsy Sound
TTITLE7=Mo' Horizons - Tu Fiesta Personal (TM Juke Remix)
TTITLE8=Shantisan feat. Micheline Cardoso and Stefan Obermaier - Favela Funk
TTITLE9=Dusty - An Exotic Breed
TTITLE10=Kinski meets The Sura Quintet - Sundrops
TTITLE11=Zons Of Zambesi - Zambesi (Massivan Remix)
TTITLE12=Gecko Turner - 45000$ (Guapa Pasea) [Afrodisiac Soundsystem Remix]
TTITLE13=Aiff - Life
TTITLE14=A Bossa Eléctrica - Nucléo Urbano
EXTD=YEAR: 2009
EXTT0=
EXTT1=
EXTT2=
EXTT3=
EXTT4=
EXTT5=
EXTT6=
EXTT7=
EXTT8=
EXTT9=
EXTT10=
EXTT11=
EXTT12=
EXTT13=
EXTT14=
PLAYORDER=
